# xmcd
#
# Track frame offsets: 
#        150
#        16067
#        37458
#        62384
#        80632
#        106204
#        125423
#        139381
#        162650
#        181481
#
# Disc length: 2716 seconds
#
# Revision: 0
# Processed by: cddbd v1.5.2PL0 Copyright (c) Steve Scherf et al.
# Submitted via: ExactAudioCopyFreeDBPlugin 1.0
#
DISCID=8b0a9a0a
DTITLE=Big Mike Griffin - All My Runnin'
DYEAR=2008
DGENRE=Blues
TTITLE0=Iron City
TTITLE1=I'm Gonna Take My Troubles
TTITLE2=Broken Strings
TTITLE3=Buried Alive In The Blues
TTITLE4=Use Me
TTITLE5=Shade Tree Mechanic
TTITLE6=Somebody's Got To Go
TTITLE7=You Wouldn't Understand
TTITLE8=Shoal Creek
TTITLE9=All My Runnin'
EXTD=
EXTT0=
EXTT1=
EXTT2=
EXTT3=
EXTT4=
EXTT5=
EXTT6=
EXTT7=
EXTT8=
EXTT9=
PLAYORDER=
